<?xml version="1.0" encoding="utf-8" standalone="no"?>
<!DOCTYPE svg PUBLIC "-//W3C//DTD SVG 1.1//EN"
  "http://www.w3.org/Graphics/SVG/1.1/DTD/svg11.dtd">
<!-- Created with matplotlib (https://matplotlib.org/) -->
<svg height="345.6pt" version="1.1" viewBox="0 0 460.8 345.6" width="460.8pt" xmlns="http://www.w3.org/2000/svg" xmlns:xlink="http://www.w3.org/1999/xlink">
 <defs>
  <style type="text/css">
*{stroke-linecap:butt;stroke-linejoin:round;}
  </style>
 </defs>
 <g id="figure_1">
  <g id="patch_1">
   <path d="M 0 345.6 
L 460.8 345.6 
L 460.8 0 
L 0 0 
z
" style="fill:#ffffff;"/>
  </g>
  <g id="axes_1">
   <g id="patch_2">
    <path d="M 57.6 307.584 
L 414.72 307.584 
L 414.72 41.472 
L 57.6 41.472 
z
" style="fill:#ffffff;"/>
   </g>
   <g id="matplotlib.axis_1">
    <g id="xtick_1">
     <g id="line2d_1">
      <defs>
       <path d="M 0 0 
L 0 3.5 
" id="m5d56f33f7d" style="stroke:#000000;stroke-width:0.8;"/>
      </defs>
      <g>
       <use style="stroke:#000000;stroke-width:0.8;" x="73.832727" xlink:href="#m5d56f33f7d" y="307.584"/>
      </g>
     </g>
     <g id="text_1">
      <!-- 0.4 -->
      <defs>
       <path d="M 31.78125 66.40625 
Q 24.171875 66.40625 20.328125 58.90625 
Q 16.5 51.421875 16.5 36.375 
Q 16.5 21.390625 20.328125 13.890625 
Q 24.171875 6.390625 31.78125 6.390625 
Q 39.453125 6.390625 43.28125 13.890625 
Q 47.125 21.390625 47.125 36.375 
Q 47.125 51.421875 43.28125 58.90625 
Q 39.453125 66.40625 31.78125 66.40625 
z
M 31.78125 74.21875 
Q 44.046875 74.21875 50.515625 64.515625 
Q 56.984375 54.828125 56.984375 36.375 
Q 56.984375 17.96875 50.515625 8.265625 
Q 44.046875 -1.421875 31.78125 -1.421875 
Q 19.53125 -1.421875 13.0625 8.265625 
Q 6.59375 17.96875 6.59375 36.375 
Q 6.59375 54.828125 13.0625 64.515625 
Q 19.53125 74.21875 31.78125 74.21875 
z
" id="DejaVuSans-48"/>
       <path d="M 10.6875 12.40625 
L 21 12.40625 
L 21 0 
L 10.6875 0 
z
" id="DejaVuSans-46"/>
       <path d="M 37.796875 64.3125 
L 12.890625 25.390625 
L 37.796875 25.390625 
z
M 35.203125 72.90625 
L 47.609375 72.90625 
L 47.609375 25.390625 
L 58.015625 25.390625 
L 58.015625 17.1875 
L 47.609375 17.1875 
L 47.609375 0 
L 37.796875 0 
L 37.796875 17.1875 
L 4.890625 17.1875 
L 4.890625 26.703125 
z
" id="DejaVuSans-52"/>
      </defs>
      <g transform="translate(65.881165 322.182437)scale(0.1 -0.1)">
       <use xlink:href="#DejaVuSans-48"/>
       <use x="63.623047" xlink:href="#DejaVuSans-46"/>
       <use x="95.410156" xlink:href="#DejaVuSans-52"/>
      </g>
     </g>
    </g>
    <g id="xtick_2">
     <g id="line2d_2">
      <g>
       <use style="stroke:#000000;stroke-width:0.8;" x="127.941818" xlink:href="#m5d56f33f7d" y="307.584"/>
      </g>
     </g>
     <g id="text_2">
      <!-- 0.5 -->
      <defs>
       <path d="M 10.796875 72.90625 
L 49.515625 72.90625 
L 49.515625 64.59375 
L 19.828125 64.59375 
L 19.828125 46.734375 
Q 21.96875 47.46875 24.109375 47.828125 
Q 26.265625 48.1875 28.421875 48.1875 
Q 40.625 48.1875 47.75 41.5 
Q 54.890625 34.8125 54.890625 23.390625 
Q 54.890625 11.625 47.5625 5.09375 
Q 40.234375 -1.421875 26.90625 -1.421875 
Q 22.3125 -1.421875 17.546875 -0.640625 
Q 12.796875 0.140625 7.71875 1.703125 
L 7.71875 11.625 
Q 12.109375 9.234375 16.796875 8.0625 
Q 21.484375 6.890625 26.703125 6.890625 
Q 35.15625 6.890625 40.078125 11.328125 
Q 45.015625 15.765625 45.015625 23.390625 
Q 45.015625 31 40.078125 35.4375 
Q 35.15625 39.890625 26.703125 39.890625 
Q 22.75 39.890625 18.8125 39.015625 
Q 14.890625 38.140625 10.796875 36.28125 
z
" id="DejaVuSans-53"/>
      </defs>
      <g transform="translate(119.990256 322.182437)scale(0.1 -0.1)">
       <use xlink:href="#DejaVuSans-48"/>
       <use x="63.623047" xlink:href="#DejaVuSans-46"/>
       <use x="95.410156" xlink:href="#DejaVuSans-53"/>
      </g>
     </g>
    </g>
    <g id="xtick_3">
     <g id="line2d_3">
      <g>
       <use style="stroke:#000000;stroke-width:0.8;" x="182.050909" xlink:href="#m5d56f33f7d" y="307.584"/>
      </g>
     </g>
     <g id="text_3">
      <!-- 0.6 -->
      <defs>
       <path d="M 33.015625 40.375 
Q 26.375 40.375 22.484375 35.828125 
Q 18.609375 31.296875 18.609375 23.390625 
Q 18.609375 15.53125 22.484375 10.953125 
Q 26.375 6.390625 33.015625 6.390625 
Q 39.65625 6.390625 43.53125 10.953125 
Q 47.40625 15.53125 47.40625 23.390625 
Q 47.40625 31.296875 43.53125 35.828125 
Q 39.65625 40.375 33.015625 40.375 
z
M 52.59375 71.296875 
L 52.59375 62.3125 
Q 48.875 64.0625 45.09375 64.984375 
Q 41.3125 65.921875 37.59375 65.921875 
Q 27.828125 65.921875 22.671875 59.328125 
Q 17.53125 52.734375 16.796875 39.40625 
Q 19.671875 43.65625 24.015625 45.921875 
Q 28.375 48.1875 33.59375 48.1875 
Q 44.578125 48.1875 50.953125 41.515625 
Q 57.328125 34.859375 57.328125 23.390625 
Q 57.328125 12.15625 50.6875 5.359375 
Q 44.046875 -1.421875 33.015625 -1.421875 
Q 20.359375 -1.421875 13.671875 8.265625 
Q 6.984375 17.96875 6.984375 36.375 
Q 6.984375 53.65625 15.1875 63.9375 
Q 23.390625 74.21875 37.203125 74.21875 
Q 40.921875 74.21875 44.703125 73.484375 
Q 48.484375 72.75 52.59375 71.296875 
z
" id="DejaVuSans-54"/>
      </defs>
      <g transform="translate(174.099347 322.182437)scale(0.1 -0.1)">
       <use xlink:href="#DejaVuSans-48"/>
       <use x="63.623047" xlink:href="#DejaVuSans-46"/>
       <use x="95.410156" xlink:href="#DejaVuSans-54"/>
      </g>
     </g>
    </g>
    <g id="xtick_4">
     <g id="line2d_4">
      <g>
       <use style="stroke:#000000;stroke-width:0.8;" x="236.16" xlink:href="#m5d56f33f7d" y="307.584"/>
      </g>
     </g>
     <g id="text_4">
      <!-- 0.7 -->
      <defs>
       <path d="M 8.203125 72.90625 
L 55.078125 72.90625 
L 55.078125 68.703125 
L 28.609375 0 
L 18.3125 0 
L 43.21875 64.59375 
L 8.203125 64.59375 
z
" id="DejaVuSans-55"/>
      </defs>
      <g transform="translate(228.208437 322.182437)scale(0.1 -0.1)">
       <use xlink:href="#DejaVuSans-48"/>
       <use x="63.623047" xlink:href="#DejaVuSans-46"/>
       <use x="95.410156" xlink:href="#DejaVuSans-55"/>
      </g>
     </g>
    </g>
    <g id="xtick_5">
     <g id="line2d_5">
      <g>
       <use style="stroke:#000000;stroke-width:0.8;" x="290.269091" xlink:href="#m5d56f33f7d" y="307.584"/>
      </g>
     </g>
     <g id="text_5">
      <!-- 0.8 -->
      <defs>
       <path d="M 31.78125 34.625 
Q 24.75 34.625 20.71875 30.859375 
Q 16.703125 27.09375 16.703125 20.515625 
Q 16.703125 13.921875 20.71875 10.15625 
Q 24.75 6.390625 31.78125 6.390625 
Q 38.8125 6.390625 42.859375 10.171875 
Q 46.921875 13.96875 46.921875 20.515625 
Q 46.921875 27.09375 42.890625 30.859375 
Q 38.875 34.625 31.78125 34.625 
z
M 21.921875 38.8125 
Q 15.578125 40.375 12.03125 44.71875 
Q 8.5 49.078125 8.5 55.328125 
Q 8.5 64.0625 14.71875 69.140625 
Q 20.953125 74.21875 31.78125 74.21875 
Q 42.671875 74.21875 48.875 69.140625 
Q 55.078125 64.0625 55.078125 55.328125 
Q 55.078125 49.078125 51.53125 44.71875 
Q 48 40.375 41.703125 38.8125 
Q 48.828125 37.15625 52.796875 32.3125 
Q 56.78125 27.484375 56.78125 20.515625 
Q 56.78125 9.90625 50.3125 4.234375 
Q 43.84375 -1.421875 31.78125 -1.421875 
Q 19.734375 -1.421875 13.25 4.234375 
Q 6.78125 9.90625 6.78125 20.515625 
Q 6.78125 27.484375 10.78125 32.3125 
Q 14.796875 37.15625 21.921875 38.8125 
z
M 18.3125 54.390625 
Q 18.3125 48.734375 21.84375 45.5625 
Q 25.390625 42.390625 31.78125 42.390625 
Q 38.140625 42.390625 41.71875 45.5625 
Q 45.3125 48.734375 45.3125 54.390625 
Q 45.3125 60.0625 41.71875 63.234375 
Q 38.140625 66.40625 31.78125 66.40625 
Q 25.390625 66.40625 21.84375 63.234375 
Q 18.3125 60.0625 18.3125 54.390625 
z
" id="DejaVuSans-56"/>
      </defs>
      <g transform="translate(282.317528 322.182437)scale(0.1 -0.1)">
       <use xlink:href="#DejaVuSans-48"/>
       <use x="63.623047" xlink:href="#DejaVuSans-46"/>
       <use x="95.410156" xlink:href="#DejaVuSans-56"/>
      </g>
     </g>
    </g>
    <g id="xtick_6">
     <g id="line2d_6">
      <g>
       <use style="stroke:#000000;stroke-width:0.8;" x="344.378182" xlink:href="#m5d56f33f7d" y="307.584"/>
      </g>
     </g>
     <g id="text_6">
      <!-- 0.9 -->
      <defs>
       <path d="M 10.984375 1.515625 
L 10.984375 10.5 
Q 14.703125 8.734375 18.5 7.8125 
Q 22.3125 6.890625 25.984375 6.890625 
Q 35.75 6.890625 40.890625 13.453125 
Q 46.046875 20.015625 46.78125 33.40625 
Q 43.953125 29.203125 39.59375 26.953125 
Q 35.25 24.703125 29.984375 24.703125 
Q 19.046875 24.703125 12.671875 31.3125 
Q 6.296875 37.9375 6.296875 49.421875 
Q 6.296875 60.640625 12.9375 67.421875 
Q 19.578125 74.21875 30.609375 74.21875 
Q 43.265625 74.21875 49.921875 64.515625 
Q 56.59375 54.828125 56.59375 36.375 
Q 56.59375 19.140625 48.40625 8.859375 
Q 40.234375 -1.421875 26.421875 -1.421875 
Q 22.703125 -1.421875 18.890625 -0.6875 
Q 15.09375 0.046875 10.984375 1.515625 
z
M 30.609375 32.421875 
Q 37.25 32.421875 41.125 36.953125 
Q 45.015625 41.5 45.015625 49.421875 
Q 45.015625 57.28125 41.125 61.84375 
Q 37.25 66.40625 30.609375 66.40625 
Q 23.96875 66.40625 20.09375 61.84375 
Q 16.21875 57.28125 16.21875 49.421875 
Q 16.21875 41.5 20.09375 36.953125 
Q 23.96875 32.421875 30.609375 32.421875 
z
" id="DejaVuSans-57"/>
      </defs>
      <g transform="translate(336.426619 322.182437)scale(0.1 -0.1)">
       <use xlink:href="#DejaVuSans-48"/>
       <use x="63.623047" xlink:href="#DejaVuSans-46"/>
       <use x="95.410156" xlink:href="#DejaVuSans-57"/>
      </g>
     </g>
    </g>
    <g id="xtick_7">
     <g id="line2d_7">
      <g>
       <use style="stroke:#000000;stroke-width:0.8;" x="398.487273" xlink:href="#m5d56f33f7d" y="307.584"/>
      </g>
     </g>
     <g id="text_7">
      <!-- 1.0 -->
      <defs>
       <path d="M 12.40625 8.296875 
L 28.515625 8.296875 
L 28.515625 63.921875 
L 10.984375 60.40625 
L 10.984375 69.390625 
L 28.421875 72.90625 
L 38.28125 72.90625 
L 38.28125 8.296875 
L 54.390625 8.296875 
L 54.390625 0 
L 12.40625 0 
z
" id="DejaVuSans-49"/>
      </defs>
      <g transform="translate(390.53571 322.182437)scale(0.1 -0.1)">
       <use xlink:href="#DejaVuSans-49"/>
       <use x="63.623047" xlink:href="#DejaVuSans-46"/>
       <use x="95.410156" xlink:href="#DejaVuSans-48"/>
      </g>
     </g>
    </g>
    <g id="text_8">
     <!-- E * V -->
     <defs>
      <path d="M 9.8125 72.90625 
L 55.90625 72.90625 
L 55.90625 64.59375 
L 19.671875 64.59375 
L 19.671875 43.015625 
L 54.390625 43.015625 
L 54.390625 34.71875 
L 19.671875 34.71875 
L 19.671875 8.296875 
L 56.78125 8.296875 
L 56.78125 0 
L 9.8125 0 
z
" id="DejaVuSans-69"/>
      <path id="DejaVuSans-32"/>
      <path d="M 47.015625 60.890625 
L 29.5 51.421875 
L 47.015625 41.890625 
L 44.1875 37.109375 
L 27.78125 47.015625 
L 27.78125 28.609375 
L 22.21875 28.609375 
L 22.21875 47.015625 
L 5.8125 37.109375 
L 2.984375 41.890625 
L 20.515625 51.421875 
L 2.984375 60.890625 
L 5.8125 65.71875 
L 22.21875 55.8125 
L 22.21875 74.21875 
L 27.78125 74.21875 
L 27.78125 55.8125 
L 44.1875 65.71875 
z
" id="DejaVuSans-42"/>
      <path d="M 28.609375 0 
L 0.78125 72.90625 
L 11.078125 72.90625 
L 34.1875 11.53125 
L 57.328125 72.90625 
L 67.578125 72.90625 
L 39.796875 0 
z
" id="DejaVuSans-86"/>
     </defs>
     <g transform="translate(223.902187 335.860562)scale(0.1 -0.1)">
      <use xlink:href="#DejaVuSans-69"/>
      <use x="63.183594" xlink:href="#DejaVuSans-32"/>
      <use x="94.970703" xlink:href="#DejaVuSans-42"/>
      <use x="144.970703" xlink:href="#DejaVuSans-32"/>
      <use x="176.757812" xlink:href="#DejaVuSans-86"/>
     </g>
    </g>
    <g id="text_9">
     <!-- 1e7 -->
     <defs>
      <path d="M 56.203125 29.59375 
L 56.203125 25.203125 
L 14.890625 25.203125 
Q 15.484375 15.921875 20.484375 11.0625 
Q 25.484375 6.203125 34.421875 6.203125 
Q 39.59375 6.203125 44.453125 7.46875 
Q 49.3125 8.734375 54.109375 11.28125 
L 54.109375 2.78125 
Q 49.265625 0.734375 44.1875 -0.34375 
Q 39.109375 -1.421875 33.890625 -1.421875 
Q 20.796875 -1.421875 13.15625 6.1875 
Q 5.515625 13.8125 5.515625 26.8125 
Q 5.515625 40.234375 12.765625 48.109375 
Q 20.015625 56 32.328125 56 
Q 43.359375 56 49.78125 48.890625 
Q 56.203125 41.796875 56.203125 29.59375 
z
M 47.21875 32.234375 
Q 47.125 39.59375 43.09375 43.984375 
Q 39.0625 48.390625 32.421875 48.390625 
Q 24.90625 48.390625 20.390625 44.140625 
Q 15.875 39.890625 15.1875 32.171875 
z
" id="DejaVuSans-101"/>
     </defs>
     <g transform="translate(395.841875 334.860562)scale(0.1 -0.1)">
      <use xlink:href="#DejaVuSans-49"/>
      <use x="63.623047" xlink:href="#DejaVuSans-101"/>
      <use x="125.146484" xlink:href="#DejaVuSans-55"/>
     </g>
    </g>
   </g>
   <g id="matplotlib.axis_2">
    <g id="ytick_1">
     <g id="line2d_8">
      <defs>
       <path d="M 0 0 
L -3.5 0 
" id="m469e8527ec" style="stroke:#000000;stroke-width:0.8;"/>
      </defs>
      <g>
       <use style="stroke:#000000;stroke-width:0.8;" x="57.6" xlink:href="#m469e8527ec" y="273.535924"/>
      </g>
     </g>
     <g id="text_10">
      <!-- 0.8 -->
      <g transform="translate(34.696875 277.335143)scale(0.1 -0.1)">
       <use xlink:href="#DejaVuSans-48"/>
       <use x="63.623047" xlink:href="#DejaVuSans-46"/>
       <use x="95.410156" xlink:href="#DejaVuSans-56"/>
      </g>
     </g>
    </g>
    <g id="ytick_2">
     <g id="line2d_9">
      <g>
       <use style="stroke:#000000;stroke-width:0.8;" x="57.6" xlink:href="#m469e8527ec" y="228.223289"/>
      </g>
     </g>
     <g id="text_11">
      <!-- 1.0 -->
      <g transform="translate(34.696875 232.022507)scale(0.1 -0.1)">
       <use xlink:href="#DejaVuSans-49"/>
       <use x="63.623047" xlink:href="#DejaVuSans-46"/>
       <use x="95.410156" xlink:href="#DejaVuSans-48"/>
      </g>
     </g>
    </g>
    <g id="ytick_3">
     <g id="line2d_10">
      <g>
       <use style="stroke:#000000;stroke-width:0.8;" x="57.6" xlink:href="#m469e8527ec" y="182.910653"/>
      </g>
     </g>
     <g id="text_12">
      <!-- 1.2 -->
      <defs>
       <path d="M 19.1875 8.296875 
L 53.609375 8.296875 
L 53.609375 0 
L 7.328125 0 
L 7.328125 8.296875 
Q 12.9375 14.109375 22.625 23.890625 
Q 32.328125 33.6875 34.8125 36.53125 
Q 39.546875 41.84375 41.421875 45.53125 
Q 43.3125 49.21875 43.3125 52.78125 
Q 43.3125 58.59375 39.234375 62.25 
Q 35.15625 65.921875 28.609375 65.921875 
Q 23.96875 65.921875 18.8125 64.3125 
Q 13.671875 62.703125 7.8125 59.421875 
L 7.8125 69.390625 
Q 13.765625 71.78125 18.9375 73 
Q 24.125 74.21875 28.421875 74.21875 
Q 39.75 74.21875 46.484375 68.546875 
Q 53.21875 62.890625 53.21875 53.421875 
Q 53.21875 48.921875 51.53125 44.890625 
Q 49.859375 40.875 45.40625 35.40625 
Q 44.1875 33.984375 37.640625 27.21875 
Q 31.109375 20.453125 19.1875 8.296875 
z
" id="DejaVuSans-50"/>
      </defs>
      <g transform="translate(34.696875 186.709872)scale(0.1 -0.1)">
       <use xlink:href="#DejaVuSans-49"/>
       <use x="63.623047" xlink:href="#DejaVuSans-46"/>
       <use x="95.410156" xlink:href="#DejaVuSans-50"/>
      </g>
     </g>
    </g>
    <g id="ytick_4">
     <g id="line2d_11">
      <g>
       <use style="stroke:#000000;stroke-width:0.8;" x="57.6" xlink:href="#m469e8527ec" y="137.598017"/>
      </g>
     </g>
     <g id="text_13">
      <!-- 1.4 -->
      <g transform="translate(34.696875 141.397236)scale(0.1 -0.1)">
       <use xlink:href="#DejaVuSans-49"/>
       <use x="63.623047" xlink:href="#DejaVuSans-46"/>
       <use x="95.410156" xlink:href="#DejaVuSans-52"/>
      </g>
     </g>
    </g>
    <g id="ytick_5">
     <g id="line2d_12">
      <g>
       <use style="stroke:#000000;stroke-width:0.8;" x="57.6" xlink:href="#m469e8527ec" y="92.285382"/>
      </g>
     </g>
     <g id="text_14">
      <!-- 1.6 -->
      <g transform="translate(34.696875 96.0846)scale(0.1 -0.1)">
       <use xlink:href="#DejaVuSans-49"/>
       <use x="63.623047" xlink:href="#DejaVuSans-46"/>
       <use x="95.410156" xlink:href="#DejaVuSans-54"/>
      </g>
     </g>
    </g>
    <g id="ytick_6">
     <g id="line2d_13">
      <g>
       <use style="stroke:#000000;stroke-width:0.8;" x="57.6" xlink:href="#m469e8527ec" y="46.972746"/>
      </g>
     </g>
     <g id="text_15">
      <!-- 1.8 -->
      <g transform="translate(34.696875 50.771965)scale(0.1 -0.1)">
       <use xlink:href="#DejaVuSans-49"/>
       <use x="63.623047" xlink:href="#DejaVuSans-46"/>
       <use x="95.410156" xlink:href="#DejaVuSans-56"/>
      </g>
     </g>
    </g>
    <g id="text_16">
     <!-- время, нс -->
     <defs>
      <path d="M 18.0625 25.203125 
L 18.0625 7.171875 
L 30.859375 7.171875 
Q 37.015625 7.171875 40.234375 9.484375 
Q 43.453125 11.8125 43.453125 16.21875 
Q 43.453125 20.609375 40.234375 22.90625 
Q 37.015625 25.203125 30.859375 25.203125 
z
M 18.0625 47.515625 
L 18.0625 32.375 
L 29.890625 32.375 
Q 34.96875 32.375 38.1875 34.390625 
Q 41.40625 36.421875 41.40625 40.046875 
Q 41.40625 43.65625 38.1875 45.578125 
Q 34.96875 47.515625 29.890625 47.515625 
z
M 9.078125 54.6875 
L 30.46875 54.6875 
Q 40.09375 54.6875 45.265625 51.171875 
Q 50.4375 47.65625 50.4375 41.15625 
Q 50.4375 36.140625 47.796875 33.171875 
Q 45.171875 30.21875 39.984375 29.5 
Q 46.1875 28.328125 49.609375 24.609375 
Q 53.03125 20.90625 53.03125 15.328125 
Q 53.03125 8.015625 47.390625 4 
Q 41.75 0 31.296875 0 
L 9.078125 0 
z
" id="DejaVuSans-1074"/>
      <path d="M 18.109375 8.203125 
L 18.109375 -20.796875 
L 9.078125 -20.796875 
L 9.078125 54.6875 
L 18.109375 54.6875 
L 18.109375 46.390625 
Q 20.953125 51.265625 25.265625 53.625 
Q 29.59375 56 35.59375 56 
Q 45.5625 56 51.78125 48.09375 
Q 58.015625 40.1875 58.015625 27.296875 
Q 58.015625 14.40625 51.78125 6.484375 
Q 45.5625 -1.421875 35.59375 -1.421875 
Q 29.59375 -1.421875 25.265625 0.953125 
Q 20.953125 3.328125 18.109375 8.203125 
z
M 48.6875 27.296875 
Q 48.6875 37.203125 44.609375 42.84375 
Q 40.53125 48.484375 33.40625 48.484375 
Q 26.265625 48.484375 22.1875 42.84375 
Q 18.109375 37.203125 18.109375 27.296875 
Q 18.109375 17.390625 22.1875 11.75 
Q 26.265625 6.109375 33.40625 6.109375 
Q 40.53125 6.109375 44.609375 11.75 
Q 48.6875 17.390625 48.6875 27.296875 
z
" id="DejaVuSans-1088"/>
      <path d="M 56.203125 29.59375 
L 56.203125 25.203125 
L 14.890625 25.203125 
Q 15.484375 15.921875 20.484375 11.0625 
Q 25.484375 6.203125 34.421875 6.203125 
Q 39.59375 6.203125 44.453125 7.46875 
Q 49.3125 8.734375 54.109375 11.28125 
L 54.109375 2.78125 
Q 49.265625 0.734375 44.1875 -0.34375 
Q 39.109375 -1.421875 33.890625 -1.421875 
Q 20.796875 -1.421875 13.15625 6.1875 
Q 5.515625 13.8125 5.515625 26.8125 
Q 5.515625 40.234375 12.765625 48.109375 
Q 20.015625 56 32.328125 56 
Q 43.359375 56 49.78125 48.890625 
Q 56.203125 41.796875 56.203125 29.59375 
z
M 47.21875 32.234375 
Q 47.125 39.59375 43.09375 43.984375 
Q 39.0625 48.390625 32.421875 48.390625 
Q 24.90625 48.390625 20.390625 44.140625 
Q 15.875 39.890625 15.1875 32.171875 
z
" id="DejaVuSans-1077"/>
      <path d="M 9.078125 54.6875 
L 22.21875 54.6875 
L 37.75 18.0625 
L 53.328125 54.6875 
L 66.359375 54.6875 
L 66.359375 0 
L 57.328125 0 
L 57.328125 46.09375 
L 42.234375 10.5 
L 33.25 10.5 
L 18.109375 46.09375 
L 18.109375 0 
L 9.078125 0 
z
" id="DejaVuSans-1084"/>
      <path d="M 18.453125 38.921875 
Q 18.453125 34.859375 21.578125 32.5625 
Q 24.703125 30.28125 30.515625 30.28125 
L 42.625 30.28125 
L 42.625 47.515625 
L 30.515625 47.515625 
Q 24.703125 47.515625 21.578125 45.265625 
Q 18.453125 43.015625 18.453125 38.921875 
z
M 5.671875 0 
L 22.359375 23.96875 
Q 16.703125 25.25 12.9375 28.59375 
Q 9.1875 31.9375 9.1875 38.921875 
Q 9.1875 46.828125 14.421875 50.75 
Q 19.671875 54.6875 30.28125 54.6875 
L 51.65625 54.6875 
L 51.65625 0 
L 42.625 0 
L 42.625 23.09375 
L 31.453125 23.09375 
L 15.328125 0 
z
" id="DejaVuSans-1103"/>
      <path d="M 11.71875 12.40625 
L 22.015625 12.40625 
L 22.015625 4 
L 14.015625 -11.625 
L 7.71875 -11.625 
L 11.71875 4 
z
" id="DejaVuSans-44"/>
      <path d="M 9.078125 54.6875 
L 18.109375 54.6875 
L 18.109375 32.375 
L 47.265625 32.375 
L 47.265625 54.6875 
L 56.296875 54.6875 
L 56.296875 0 
L 47.265625 0 
L 47.265625 25.203125 
L 18.109375 25.203125 
L 18.109375 0 
L 9.078125 0 
z
" id="DejaVuSans-1085"/>
      <path d="M 48.78125 52.59375 
L 48.78125 44.1875 
Q 44.96875 46.296875 41.140625 47.34375 
Q 37.3125 48.390625 33.40625 48.390625 
Q 24.65625 48.390625 19.8125 42.84375 
Q 14.984375 37.3125 14.984375 27.296875 
Q 14.984375 17.28125 19.8125 11.734375 
Q 24.65625 6.203125 33.40625 6.203125 
Q 37.3125 6.203125 41.140625 7.25 
Q 44.96875 8.296875 48.78125 10.40625 
L 48.78125 2.09375 
Q 45.015625 0.34375 40.984375 -0.53125 
Q 36.96875 -1.421875 32.421875 -1.421875 
Q 20.0625 -1.421875 12.78125 6.34375 
Q 5.515625 14.109375 5.515625 27.296875 
Q 5.515625 40.671875 12.859375 48.328125 
Q 20.21875 56 33.015625 56 
Q 37.15625 56 41.109375 55.140625 
Q 45.0625 54.296875 48.78125 52.59375 
z
" id="DejaVuSans-1089"/>
     </defs>
     <g transform="translate(28.617187 199.701437)rotate(-90)scale(0.1 -0.1)">
      <use xlink:href="#DejaVuSans-1074"/>
      <use x="58.935547" xlink:href="#DejaVuSans-1088"/>
      <use x="122.412109" xlink:href="#DejaVuSans-1077"/>
      <use x="183.935547" xlink:href="#DejaVuSans-1084"/>
      <use x="259.375" xlink:href="#DejaVuSans-1103"/>
      <use x="319.53125" xlink:href="#DejaVuSans-44"/>
      <use x="351.318359" xlink:href="#DejaVuSans-32"/>
      <use x="383.105469" xlink:href="#DejaVuSans-1085"/>
      <use x="448.486328" xlink:href="#DejaVuSans-1089"/>
     </g>
    </g>
    <g id="text_17">
     <!-- 1e8 -->
     <g transform="translate(57.6 38.472)scale(0.1 -0.1)">
      <use xlink:href="#DejaVuSans-49"/>
      <use x="63.623047" xlink:href="#DejaVuSans-101"/>
      <use x="125.146484" xlink:href="#DejaVuSans-56"/>
     </g>
    </g>
   </g>
   <g id="line2d_14">
    <defs>
     <path d="M 0 1.5 
C 0.397805 1.5 0.77937 1.341951 1.06066 1.06066 
C 1.341951 0.77937 1.5 0.397805 1.5 0 
C 1.5 -0.397805 1.341951 -0.77937 1.06066 -1.06066 
C 0.77937 -1.341951 0.397805 -1.5 0 -1.5 
C -0.397805 -1.5 -0.77937 -1.341951 -1.06066 -1.06066 
C -1.341951 -0.77937 -1.5 -0.397805 -1.5 0 
C -1.5 0.397805 -1.341951 0.77937 -1.06066 1.06066 
C -0.77937 1.341951 -0.397805 1.5 0 1.5 
z
" id="m7b147a0061" style="stroke:#ff0000;"/>
    </defs>
    <g clip-path="url(#p858a8b0b85)">
     <use style="fill:#ff0000;stroke:#ff0000;" x="73.832727" xlink:href="#m7b147a0061" y="295.079137"/>
     <use style="fill:#ff0000;stroke:#ff0000;" x="79.243636" xlink:href="#m7b147a0061" y="291.757268"/>
     <use style="fill:#ff0000;stroke:#ff0000;" x="84.654545" xlink:href="#m7b147a0061" y="287.513287"/>
     <use style="fill:#ff0000;stroke:#ff0000;" x="90.065455" xlink:href="#m7b147a0061" y="282.968203"/>
     <use style="fill:#ff0000;stroke:#ff0000;" x="95.476364" xlink:href="#m7b147a0061" y="279.289949"/>
     <use style="fill:#ff0000;stroke:#ff0000;" x="100.887273" xlink:href="#m7b147a0061" y="274.898249"/>
     <use style="fill:#ff0000;stroke:#ff0000;" x="106.298182" xlink:href="#m7b147a0061" y="270.623908"/>
     <use style="fill:#ff0000;stroke:#ff0000;" x="111.709091" xlink:href="#m7b147a0061" y="265.97166"/>
     <use style="fill:#ff0000;stroke:#ff0000;" x="117.12" xlink:href="#m7b147a0061" y="262.760353"/>
     <use style="fill:#ff0000;stroke:#ff0000;" x="122.530909" xlink:href="#m7b147a0061" y="258.682896"/>
     <use style="fill:#ff0000;stroke:#ff0000;" x="127.941818" xlink:href="#m7b147a0061" y="255.602769"/>
     <use style="fill:#ff0000;stroke:#ff0000;" x="95.476364" xlink:href="#m7b147a0061" y="282.517342"/>
     <use style="fill:#ff0000;stroke:#ff0000;" x="101.428364" xlink:href="#m7b147a0061" y="277.576905"/>
     <use style="fill:#ff0000;stroke:#ff0000;" x="107.380364" xlink:href="#m7b147a0061" y="270.806518"/>
     <use style="fill:#ff0000;stroke:#ff0000;" x="113.332364" xlink:href="#m7b147a0061" y="265.465517"/>
     <use style="fill:#ff0000;stroke:#ff0000;" x="119.284364" xlink:href="#m7b147a0061" y="261.08084"/>
     <use style="fill:#ff0000;stroke:#ff0000;" x="125.236364" xlink:href="#m7b147a0061" y="256.980953"/>
     <use style="fill:#ff0000;stroke:#ff0000;" x="131.188364" xlink:href="#m7b147a0061" y="253.847131"/>
     <use style="fill:#ff0000;stroke:#ff0000;" x="137.140364" xlink:href="#m7b147a0061" y="246.382327"/>
     <use style="fill:#ff0000;stroke:#ff0000;" x="143.092364" xlink:href="#m7b147a0061" y="243.031458"/>
     <use style="fill:#ff0000;stroke:#ff0000;" x="149.044364" xlink:href="#m7b147a0061" y="238.323928"/>
     <use style="fill:#ff0000;stroke:#ff0000;" x="154.996364" xlink:href="#m7b147a0061" y="235.75946"/>
     <use style="fill:#ff0000;stroke:#ff0000;" x="117.12" xlink:href="#m7b147a0061" y="262.151125"/>
     <use style="fill:#ff0000;stroke:#ff0000;" x="123.613091" xlink:href="#m7b147a0061" y="259.773118"/>
     <use style="fill:#ff0000;stroke:#ff0000;" x="130.106182" xlink:href="#m7b147a0061" y="253.560755"/>
     <use style="fill:#ff0000;stroke:#ff0000;" x="136.599273" xlink:href="#m7b147a0061" y="246.988384"/>
     <use style="fill:#ff0000;stroke:#ff0000;" x="143.092364" xlink:href="#m7b147a0061" y="247.772746"/>
     <use style="fill:#ff0000;stroke:#ff0000;" x="149.585455" xlink:href="#m7b147a0061" y="238.336842"/>
     <use style="fill:#ff0000;stroke:#ff0000;" x="156.078545" xlink:href="#m7b147a0061" y="231.235673"/>
     <use style="fill:#ff0000;stroke:#ff0000;" x="162.571636" xlink:href="#m7b147a0061" y="230.509311"/>
     <use style="fill:#ff0000;stroke:#ff0000;" x="169.064727" xlink:href="#m7b147a0061" y="223.358977"/>
     <use style="fill:#ff0000;stroke:#ff0000;" x="175.557818" xlink:href="#m7b147a0061" y="217.925992"/>
     <use style="fill:#ff0000;stroke:#ff0000;" x="182.050909" xlink:href="#m7b147a0061" y="214.212622"/>
     <use style="fill:#ff0000;stroke:#ff0000;" x="138.763636" xlink:href="#m7b147a0061" y="248.393755"/>
     <use style="fill:#ff0000;stroke:#ff0000;" x="145.797818" xlink:href="#m7b147a0061" y="244.103102"/>
     <use style="fill:#ff0000;stroke:#ff0000;" x="152.832" xlink:href="#m7b147a0061" y="232.998561"/>
     <use style="fill:#ff0000;stroke:#ff0000;" x="159.866182" xlink:href="#m7b147a0061" y="230.372014"/>
     <use style="fill:#ff0000;stroke:#ff0000;" x="166.900364" xlink:href="#m7b147a0061" y="224.129292"/>
     <use style="fill:#ff0000;stroke:#ff0000;" x="173.934545" xlink:href="#m7b147a0061" y="218.322478"/>
     <use style="fill:#ff0000;stroke:#ff0000;" x="180.968727" xlink:href="#m7b147a0061" y="220.107796"/>
     <use style="fill:#ff0000;stroke:#ff0000;" x="188.002909" xlink:href="#m7b147a0061" y="211.333004"/>
     <use style="fill:#ff0000;stroke:#ff0000;" x="195.037091" xlink:href="#m7b147a0061" y="201.090082"/>
     <use style="fill:#ff0000;stroke:#ff0000;" x="202.071273" xlink:href="#m7b147a0061" y="198.396246"/>
     <use style="fill:#ff0000;stroke:#ff0000;" x="209.105455" xlink:href="#m7b147a0061" y="195.249284"/>
     <use style="fill:#ff0000;stroke:#ff0000;" x="160.407273" xlink:href="#m7b147a0061" y="230.129138"/>
     <use style="fill:#ff0000;stroke:#ff0000;" x="167.982545" xlink:href="#m7b147a0061" y="227.63649"/>
     <use style="fill:#ff0000;stroke:#ff0000;" x="175.557818" xlink:href="#m7b147a0061" y="226.431174"/>
     <use style="fill:#ff0000;stroke:#ff0000;" x="183.133091" xlink:href="#m7b147a0061" y="215.456454"/>
     <use style="fill:#ff0000;stroke:#ff0000;" x="190.708364" xlink:href="#m7b147a0061" y="207.803149"/>
     <use style="fill:#ff0000;stroke:#ff0000;" x="198.283636" xlink:href="#m7b147a0061" y="197.016477"/>
     <use style="fill:#ff0000;stroke:#ff0000;" x="205.858909" xlink:href="#m7b147a0061" y="195.237956"/>
     <use style="fill:#ff0000;stroke:#ff0000;" x="213.434182" xlink:href="#m7b147a0061" y="195.158658"/>
     <use style="fill:#ff0000;stroke:#ff0000;" x="221.009455" xlink:href="#m7b147a0061" y="184.811518"/>
     <use style="fill:#ff0000;stroke:#ff0000;" x="228.584727" xlink:href="#m7b147a0061" y="175.606256"/>
     <use style="fill:#ff0000;stroke:#ff0000;" x="236.16" xlink:href="#m7b147a0061" y="178.263842"/>
     <use style="fill:#ff0000;stroke:#ff0000;" x="182.050909" xlink:href="#m7b147a0061" y="220.658344"/>
     <use style="fill:#ff0000;stroke:#ff0000;" x="190.167273" xlink:href="#m7b147a0061" y="206.980725"/>
     <use style="fill:#ff0000;stroke:#ff0000;" x="198.283636" xlink:href="#m7b147a0061" y="205.721034"/>
     <use style="fill:#ff0000;stroke:#ff0000;" x="206.4" xlink:href="#m7b147a0061" y="200.118126"/>
     <use style="fill:#ff0000;stroke:#ff0000;" x="214.516364" xlink:href="#m7b147a0061" y="187.276525"/>
     <use style="fill:#ff0000;stroke:#ff0000;" x="222.632727" xlink:href="#m7b147a0061" y="179.65494"/>
     <use style="fill:#ff0000;stroke:#ff0000;" x="230.749091" xlink:href="#m7b147a0061" y="176.727744"/>
     <use style="fill:#ff0000;stroke:#ff0000;" x="238.865455" xlink:href="#m7b147a0061" y="169.656707"/>
     <use style="fill:#ff0000;stroke:#ff0000;" x="246.981818" xlink:href="#m7b147a0061" y="166.799745"/>
     <use style="fill:#ff0000;stroke:#ff0000;" x="255.098182" xlink:href="#m7b147a0061" y="161.960356"/>
     <use style="fill:#ff0000;stroke:#ff0000;" x="263.214545" xlink:href="#m7b147a0061" y="152.349546"/>
     <use style="fill:#ff0000;stroke:#ff0000;" x="203.694545" xlink:href="#m7b147a0061" y="202.132273"/>
     <use style="fill:#ff0000;stroke:#ff0000;" x="212.352" xlink:href="#m7b147a0061" y="189.560282"/>
     <use style="fill:#ff0000;stroke:#ff0000;" x="221.009455" xlink:href="#m7b147a0061" y="190.097237"/>
     <use style="fill:#ff0000;stroke:#ff0000;" x="229.666909" xlink:href="#m7b147a0061" y="182.883465"/>
     <use style="fill:#ff0000;stroke:#ff0000;" x="238.324364" xlink:href="#m7b147a0061" y="174.190236"/>
     <use style="fill:#ff0000;stroke:#ff0000;" x="246.981818" xlink:href="#m7b147a0061" y="161.344104"/>
     <use style="fill:#ff0000;stroke:#ff0000;" x="255.639273" xlink:href="#m7b147a0061" y="159.005972"/>
     <use style="fill:#ff0000;stroke:#ff0000;" x="264.296727" xlink:href="#m7b147a0061" y="155.435336"/>
     <use style="fill:#ff0000;stroke:#ff0000;" x="272.954182" xlink:href="#m7b147a0061" y="147.843204"/>
     <use style="fill:#ff0000;stroke:#ff0000;" x="281.611636" xlink:href="#m7b147a0061" y="137.448486"/>
     <use style="fill:#ff0000;stroke:#ff0000;" x="290.269091" xlink:href="#m7b147a0061" y="126.562125"/>
     <use style="fill:#ff0000;stroke:#ff0000;" x="225.338182" xlink:href="#m7b147a0061" y="190.559426"/>
     <use style="fill:#ff0000;stroke:#ff0000;" x="234.536727" xlink:href="#m7b147a0061" y="175.803366"/>
     <use style="fill:#ff0000;stroke:#ff0000;" x="243.735273" xlink:href="#m7b147a0061" y="164.713099"/>
     <use style="fill:#ff0000;stroke:#ff0000;" x="252.933818" xlink:href="#m7b147a0061" y="162.288873"/>
     <use style="fill:#ff0000;stroke:#ff0000;" x="262.132364" xlink:href="#m7b147a0061" y="164.454816"/>
     <use style="fill:#ff0000;stroke:#ff0000;" x="271.330909" xlink:href="#m7b147a0061" y="146.472497"/>
     <use style="fill:#ff0000;stroke:#ff0000;" x="280.529455" xlink:href="#m7b147a0061" y="133.238942"/>
     <use style="fill:#ff0000;stroke:#ff0000;" x="289.728" xlink:href="#m7b147a0061" y="128.752991"/>
     <use style="fill:#ff0000;stroke:#ff0000;" x="298.926545" xlink:href="#m7b147a0061" y="127.633769"/>
     <use style="fill:#ff0000;stroke:#ff0000;" x="308.125091" xlink:href="#m7b147a0061" y="121.489375"/>
     <use style="fill:#ff0000;stroke:#ff0000;" x="317.323636" xlink:href="#m7b147a0061" y="109.719418"/>
     <use style="fill:#ff0000;stroke:#ff0000;" x="246.981818" xlink:href="#m7b147a0061" y="163.469267"/>
     <use style="fill:#ff0000;stroke:#ff0000;" x="256.721455" xlink:href="#m7b147a0061" y="165.429038"/>
     <use style="fill:#ff0000;stroke:#ff0000;" x="266.461091" xlink:href="#m7b147a0061" y="159.48402"/>
     <use style="fill:#ff0000;stroke:#ff0000;" x="276.200727" xlink:href="#m7b147a0061" y="151.73556"/>
     <use style="fill:#ff0000;stroke:#ff0000;" x="285.940364" xlink:href="#m7b147a0061" y="140.819746"/>
     <use style="fill:#ff0000;stroke:#ff0000;" x="295.68" xlink:href="#m7b147a0061" y="130.710497"/>
     <use style="fill:#ff0000;stroke:#ff0000;" x="305.419636" xlink:href="#m7b147a0061" y="124.5004"/>
     <use style="fill:#ff0000;stroke:#ff0000;" x="315.159273" xlink:href="#m7b147a0061" y="120.551404"/>
     <use style="fill:#ff0000;stroke:#ff0000;" x="324.898909" xlink:href="#m7b147a0061" y="101.4408"/>
     <use style="fill:#ff0000;stroke:#ff0000;" x="334.638545" xlink:href="#m7b147a0061" y="97.620944"/>
     <use style="fill:#ff0000;stroke:#ff0000;" x="344.378182" xlink:href="#m7b147a0061" y="87.398414"/>
     <use style="fill:#ff0000;stroke:#ff0000;" x="268.625455" xlink:href="#m7b147a0061" y="153.403065"/>
     <use style="fill:#ff0000;stroke:#ff0000;" x="278.906182" xlink:href="#m7b147a0061" y="143.422957"/>
     <use style="fill:#ff0000;stroke:#ff0000;" x="289.186909" xlink:href="#m7b147a0061" y="140.257869"/>
     <use style="fill:#ff0000;stroke:#ff0000;" x="299.467636" xlink:href="#m7b147a0061" y="129.301274"/>
     <use style="fill:#ff0000;stroke:#ff0000;" x="309.748364" xlink:href="#m7b147a0061" y="113.333101"/>
     <use style="fill:#ff0000;stroke:#ff0000;" x="320.029091" xlink:href="#m7b147a0061" y="112.687396"/>
     <use style="fill:#ff0000;stroke:#ff0000;" x="330.309818" xlink:href="#m7b147a0061" y="101.74666"/>
     <use style="fill:#ff0000;stroke:#ff0000;" x="340.590545" xlink:href="#m7b147a0061" y="98.085399"/>
     <use style="fill:#ff0000;stroke:#ff0000;" x="350.871273" xlink:href="#m7b147a0061" y="90.676783"/>
     <use style="fill:#ff0000;stroke:#ff0000;" x="361.152" xlink:href="#m7b147a0061" y="77.239321"/>
     <use style="fill:#ff0000;stroke:#ff0000;" x="371.432727" xlink:href="#m7b147a0061" y="68.265153"/>
     <use style="fill:#ff0000;stroke:#ff0000;" x="290.269091" xlink:href="#m7b147a0061" y="141.447326"/>
     <use style="fill:#ff0000;stroke:#ff0000;" x="301.090909" xlink:href="#m7b147a0061" y="133.82574"/>
     <use style="fill:#ff0000;stroke:#ff0000;" x="311.912727" xlink:href="#m7b147a0061" y="125.533528"/>
     <use style="fill:#ff0000;stroke:#ff0000;" x="322.734545" xlink:href="#m7b147a0061" y="122.878208"/>
     <use style="fill:#ff0000;stroke:#ff0000;" x="333.556364" xlink:href="#m7b147a0061" y="107.268005"/>
     <use style="fill:#ff0000;stroke:#ff0000;" x="344.378182" xlink:href="#m7b147a0061" y="102.084239"/>
     <use style="fill:#ff0000;stroke:#ff0000;" x="355.2" xlink:href="#m7b147a0061" y="94.322185"/>
     <use style="fill:#ff0000;stroke:#ff0000;" x="366.021818" xlink:href="#m7b147a0061" y="75.6058"/>
     <use style="fill:#ff0000;stroke:#ff0000;" x="376.843636" xlink:href="#m7b147a0061" y="72.966339"/>
     <use style="fill:#ff0000;stroke:#ff0000;" x="387.665455" xlink:href="#m7b147a0061" y="53.568"/>
     <use style="fill:#ff0000;stroke:#ff0000;" x="398.487273" xlink:href="#m7b147a0061" y="56.980041"/>
    </g>
   </g>
   <g id="line2d_15">
    <path clip-path="url(#p858a8b0b85)" d="M 73.832727 295.488 
L 398.487273 54.303974 
L 398.487273 54.303974 
" style="fill:none;stroke:#1f77b4;stroke-linecap:square;stroke-width:1.5;"/>
   </g>
   <g id="patch_3">
    <path d="M 57.6 307.584 
L 57.6 41.472 
" style="fill:none;stroke:#000000;stroke-linecap:square;stroke-linejoin:miter;stroke-width:0.8;"/>
   </g>
   <g id="patch_4">
    <path d="M 414.72 307.584 
L 414.72 41.472 
" style="fill:none;stroke:#000000;stroke-linecap:square;stroke-linejoin:miter;stroke-width:0.8;"/>
   </g>
   <g id="patch_5">
    <path d="M 57.6 307.584 
L 414.72 307.584 
" style="fill:none;stroke:#000000;stroke-linecap:square;stroke-linejoin:miter;stroke-width:0.8;"/>
   </g>
   <g id="patch_6">
    <path d="M 57.6 41.472 
L 414.72 41.472 
" style="fill:none;stroke:#000000;stroke-linecap:square;stroke-linejoin:miter;stroke-width:0.8;"/>
   </g>
  </g>
 </g>
 <defs>
  <clipPath id="p858a8b0b85">
   <rect height="266.112" width="357.12" x="57.6" y="41.472"/>
  </clipPath>
 </defs>
</svg>
